# xmcd CD database file
#
# Track frame offsets:
#	150
#	17673
#	28875
#	42649
#	58474
#	69041
#	82054
#	98330
#	116078
#	128972
#	150831
#	166957
#	182863
#	204494
#	217706
#	232728
#	244252
#	264519
#	282093
#	297078
#	306521
#	320341
#	333298
#
# Disc length: 4568 seconds
#
# Revision: 0
# Processed by: cddbd v1.5.2PL0 Copyright (c) Steve Scherf et al.
# Submitted via: ACXtractor (MTCDDB.DLL V2003.07.15)
#
DISCID=4211d617
DTITLE=Willie Nelson - Timeless Classics
DYEAR=1989
DGENRE=Country
TTITLE0=Faded Love
TTITLE1=On the Road Again
TTITLE2=Once Your Past the Blues
TTITLE3=Mammas Don't let your Babies Grow up to be Cowboys
TTITLE4=Blue Eyes Crying in the Rain
TTITLE5=Me and Paul
TTITLE6=Spanish Eyes
TTITLE7=All of Me
TTITLE8=Turn me Loose and let me Swing
TTITLE9=City of New Orleans
TTITLE10=To All the Girls I've Loved
TTITLE11=Always on My Mind
TTITLE12=Pancho and Lefty
TTITLE13=Good Hearted Woman
TTITLE14=Nothing I Can do About It
TTITLE15=Afraid
TTITLE16=Angel Flying too Close to the Ground
TTITLE17=Stardust
TTITLE18=South of the Border
TTITLE19=Please Don't Talk about me When I'm Gone
TTITLE20=Funny How Time Slips Away
TTITLE21=Crazy
TTITLE22=If You've got the Money I've got the Time
EXTD=ID3G:   2 YEAR: 1989
EXTT0=
EXTT1=
EXTT2=
EXTT3=
EXTT4=
EXTT5=
EXTT6=
EXTT7=
EXTT8=
EXTT9=
EXTT10=
EXTT11=
EXTT12=
EXTT13=
EXTT14=
EXTT15=
EXTT16=
EXTT17=
EXTT18=
EXTT19=
EXTT20=
EXTT21=
EXTT22=
PLAYORDER=
